<svg xmlns="http://www.w3.org/2000/svg" viewBox="0 0 1400 1000" font-family="Inter, Arial, sans-serif">
  <defs>
    <linearGradient id="bgHeader" x1="0" x2="0" y1="0" y2="1">
      <stop offset="0" stop-color="#1e293b"/>
      <stop offset="1" stop-color="#334155"/>
    </linearGradient>
    <linearGradient id="bgUI" x1="0" x2="0" y1="0" y2="1">
      <stop offset="0" stop-color="#dbeafe"/>
      <stop offset="1" stop-color="#bfdbfe"/>
    </linearGradient>
    <linearGradient id="bgGateway" x1="0" x2="0" y1="0" y2="1">
      <stop offset="0" stop-color="#fef3c7"/>
      <stop offset="1" stop-color="#fde68a"/>
    </linearGradient>
    <linearGradient id="bgOrch" x1="0" x2="0" y1="0" y2="1">
      <stop offset="0" stop-color="#fce7f3"/>
      <stop offset="1" stop-color="#fbcfe8"/>
    </linearGradient>
    <linearGradient id="bgRAG" x1="0" x2="0" y1="0" y2="1">
      <stop offset="0" stop-color="#dcfce7"/>
      <stop offset="1" stop-color="#bbf7d0"/>
    </linearGradient>
    <linearGradient id="bgIngest" x1="0" x2="0" y1="0" y2="1">
      <stop offset="0" stop-color="#e0e7ff"/>
      <stop offset="1" stop-color="#c7d2fe"/>
    </linearGradient>
    <linearGradient id="bgModel" x1="0" x2="0" y1="0" y2="1">
      <stop offset="0" stop-color="#fecaca"/>
      <stop offset="1" stop-color="#fca5a5"/>
    </linearGradient>
    <linearGradient id="bgInfra" x1="0" x2="0" y1="0" y2="1">
      <stop offset="0" stop-color="#e5e7eb"/>
      <stop offset="1" stop-color="#d1d5db"/>
    </linearGradient>
    <marker id="arrow" viewBox="0 0 10 10" refX="9" refY="5" markerWidth="6" markerHeight="6" orient="auto-start-reverse">
      <path d="M 0 0 L 10 5 L 0 10 z" fill="#475569"/>
    </marker>
    <marker id="arrowGreen" viewBox="0 0 10 10" refX="9" refY="5" markerWidth="6" markerHeight="6" orient="auto-start-reverse">
      <path d="M 0 0 L 10 5 L 0 10 z" fill="#16a34a"/>
    </marker>
  </defs>

  <!-- Title -->
  <rect x="0" y="0" width="1400" height="60" fill="url(#bgHeader)"/>
  <text x="700" y="38" text-anchor="middle" fill="#f8fafc" font-size="22" font-weight="700">Local-First Enterprise AI Platform — Reference Architecture</text>

  <!-- Layer 1: USER INTERFACE -->
  <rect x="20" y="80" width="1360" height="90" rx="10" fill="url(#bgUI)" stroke="#3b82f6" stroke-width="1.5"/>
  <text x="40" y="105" fill="#1e3a8a" font-size="14" font-weight="700">① USER INTERFACE LAYER</text>

  <rect x="50" y="115" width="220" height="45" rx="6" fill="white" stroke="#3b82f6"/>
  <text x="160" y="135" text-anchor="middle" font-size="12" font-weight="600">Web Chat UI</text>
  <text x="160" y="152" text-anchor="middle" font-size="10" fill="#475569">LibreChat / OpenWebUI</text>

  <rect x="290" y="115" width="220" height="45" rx="6" fill="white" stroke="#3b82f6"/>
  <text x="400" y="135" text-anchor="middle" font-size="12" font-weight="600">SSO &amp; Auth</text>
  <text x="400" y="152" text-anchor="middle" font-size="10" fill="#475569">Keycloak / OIDC / LDAP</text>

  <rect x="530" y="115" width="220" height="45" rx="6" fill="white" stroke="#3b82f6"/>
  <text x="640" y="135" text-anchor="middle" font-size="12" font-weight="600">Mobile / API Clients</text>
  <text x="640" y="152" text-anchor="middle" font-size="10" fill="#475569">OpenAI-compatible REST</text>

  <rect x="770" y="115" width="220" height="45" rx="6" fill="white" stroke="#3b82f6"/>
  <text x="880" y="135" text-anchor="middle" font-size="12" font-weight="600">Admin Console</text>
  <text x="880" y="152" text-anchor="middle" font-size="10" fill="#475569">Users · Tenants · Quotas</text>

  <rect x="1010" y="115" width="350" height="45" rx="6" fill="white" stroke="#3b82f6"/>
  <text x="1185" y="135" text-anchor="middle" font-size="12" font-weight="600">File Upload (PDF · Image · DOCX · Scan)</text>
  <text x="1185" y="152" text-anchor="middle" font-size="10" fill="#475569">Per-tenant workspace</text>

  <!-- Layer 2: API GATEWAY -->
  <rect x="20" y="190" width="1360" height="70" rx="10" fill="url(#bgGateway)" stroke="#d97706" stroke-width="1.5"/>
  <text x="40" y="215" fill="#7c2d12" font-size="14" font-weight="700">② API GATEWAY &amp; SECURITY</text>
  <rect x="50" y="225" width="200" height="30" rx="6" fill="white" stroke="#d97706"/>
  <text x="150" y="244" text-anchor="middle" font-size="11" font-weight="600">Reverse Proxy (Traefik)</text>
  <rect x="270" y="225" width="200" height="30" rx="6" fill="white" stroke="#d97706"/>
  <text x="370" y="244" text-anchor="middle" font-size="11" font-weight="600">Rate Limit / Quotas</text>
  <rect x="490" y="225" width="200" height="30" rx="6" fill="white" stroke="#d97706"/>
  <text x="590" y="244" text-anchor="middle" font-size="11" font-weight="600">PII / PHI Redaction</text>
  <rect x="710" y="225" width="200" height="30" rx="6" fill="white" stroke="#d97706"/>
  <text x="810" y="244" text-anchor="middle" font-size="11" font-weight="600">Prompt-Injection Guard</text>
  <rect x="930" y="225" width="200" height="30" rx="6" fill="white" stroke="#d97706"/>
  <text x="1030" y="244" text-anchor="middle" font-size="11" font-weight="600">Audit Log (immutable)</text>
  <rect x="1150" y="225" width="210" height="30" rx="6" fill="white" stroke="#d97706"/>
  <text x="1255" y="244" text-anchor="middle" font-size="11" font-weight="600">Tenant Isolation</text>

  <!-- Layer 3: ORCHESTRATION & ROUTING -->
  <rect x="20" y="280" width="1360" height="160" rx="10" fill="url(#bgOrch)" stroke="#be185d" stroke-width="1.5"/>
  <text x="40" y="305" fill="#831843" font-size="14" font-weight="700">③ ORCHESTRATION &amp; INTENT ROUTING (LangGraph)</text>

  <rect x="50" y="320" width="260" height="105" rx="8" fill="white" stroke="#be185d"/>
  <text x="180" y="342" text-anchor="middle" font-size="12" font-weight="700">Intent Classifier</text>
  <text x="180" y="360" text-anchor="middle" font-size="10" fill="#475569">Small LLM or embed-based router</text>
  <text x="180" y="378" text-anchor="middle" font-size="10" fill="#475569">→ HR · Medical · University ·</text>
  <text x="180" y="392" text-anchor="middle" font-size="10" fill="#475569">General · Code · Doc-Q&amp;A</text>
  <text x="180" y="412" text-anchor="middle" font-size="10" fill="#16a34a" font-weight="600">Returns: workflow_id + params</text>

  <rect x="330" y="320" width="200" height="105" rx="8" fill="white" stroke="#be185d"/>
  <text x="430" y="342" text-anchor="middle" font-size="12" font-weight="700">HR Workflow</text>
  <text x="430" y="362" text-anchor="middle" font-size="10" fill="#475569">Policy Q&amp;A</text>
  <text x="430" y="378" text-anchor="middle" font-size="10" fill="#475569">Onboarding · Leave</text>
  <text x="430" y="394" text-anchor="middle" font-size="10" fill="#475569">Handbook · Benefits</text>
  <text x="430" y="412" text-anchor="middle" font-size="10" fill="#475569">Tools: HRIS · Email</text>

  <rect x="550" y="320" width="200" height="105" rx="8" fill="white" stroke="#be185d"/>
  <text x="650" y="342" text-anchor="middle" font-size="12" font-weight="700">Medical Workflow</text>
  <text x="650" y="362" text-anchor="middle" font-size="10" fill="#475569">Clinical Q&amp;A</text>
  <text x="650" y="378" text-anchor="middle" font-size="10" fill="#475569">Patient summary</text>
  <text x="650" y="394" text-anchor="middle" font-size="10" fill="#475569">Note drafting (HITL)</text>
  <text x="650" y="412" text-anchor="middle" font-size="10" fill="#dc2626" font-weight="600">PHI-tagged · Audited</text>

  <rect x="770" y="320" width="200" height="105" rx="8" fill="white" stroke="#be185d"/>
  <text x="870" y="342" text-anchor="middle" font-size="12" font-weight="700">University Workflow</text>
  <text x="870" y="362" text-anchor="middle" font-size="10" fill="#475569">Student support</text>
  <text x="870" y="378" text-anchor="middle" font-size="10" fill="#475569">Research assistant</text>
  <text x="870" y="394" text-anchor="middle" font-size="10" fill="#475569">Course Q&amp;A · Admin</text>
  <text x="870" y="412" text-anchor="middle" font-size="10" fill="#475569">Tools: LMS · Registrar</text>

  <rect x="990" y="320" width="200" height="105" rx="8" fill="white" stroke="#be185d"/>
  <text x="1090" y="342" text-anchor="middle" font-size="12" font-weight="700">General Assistant</text>
  <text x="1090" y="362" text-anchor="middle" font-size="10" fill="#475569">Chat · Summarize</text>
  <text x="1090" y="378" text-anchor="middle" font-size="10" fill="#475569">Translate · Draft</text>
  <text x="1090" y="394" text-anchor="middle" font-size="10" fill="#475569">Code · Math</text>
  <text x="1090" y="412" text-anchor="middle" font-size="10" fill="#475569">Falls back to RAG</text>

  <rect x="1210" y="320" width="150" height="105" rx="8" fill="white" stroke="#be185d"/>
  <text x="1285" y="342" text-anchor="middle" font-size="12" font-weight="700">Tool Registry</text>
  <text x="1285" y="362" text-anchor="middle" font-size="10" fill="#475569">MCP servers</text>
  <text x="1285" y="378" text-anchor="middle" font-size="10" fill="#475569">REST connectors</text>
  <text x="1285" y="394" text-anchor="middle" font-size="10" fill="#475569">SQL · Calendar</text>
  <text x="1285" y="412" text-anchor="middle" font-size="10" fill="#475569">Email · Search</text>

  <!-- Layer 4: RAG PIPELINE -->
  <rect x="20" y="460" width="900" height="240" rx="10" fill="url(#bgRAG)" stroke="#15803d" stroke-width="1.5"/>
  <text x="40" y="485" fill="#14532d" font-size="14" font-weight="700">④ RAG / RETRIEVAL PIPELINE</text>

  <rect x="50" y="500" width="180" height="80" rx="6" fill="white" stroke="#15803d"/>
  <text x="140" y="522" text-anchor="middle" font-size="12" font-weight="700">Query Rewrite</text>
  <text x="140" y="540" text-anchor="middle" font-size="10" fill="#475569">HyDE · multi-query</text>
  <text x="140" y="556" text-anchor="middle" font-size="10" fill="#475569">history-aware</text>
  <text x="140" y="572" text-anchor="middle" font-size="10" fill="#475569">tenant filter</text>

  <rect x="250" y="500" width="180" height="80" rx="6" fill="white" stroke="#15803d"/>
  <text x="340" y="522" text-anchor="middle" font-size="12" font-weight="700">Hybrid Retrieval</text>
  <text x="340" y="540" text-anchor="middle" font-size="10" fill="#475569">BM25 + Dense (top-50)</text>
  <text x="340" y="556" text-anchor="middle" font-size="10" fill="#475569">metadata filters</text>
  <text x="340" y="572" text-anchor="middle" font-size="10" fill="#475569">62% → 91% recall</text>

  <rect x="450" y="500" width="180" height="80" rx="6" fill="white" stroke="#15803d"/>
  <text x="540" y="522" text-anchor="middle" font-size="12" font-weight="700">Reranker</text>
  <text x="540" y="540" text-anchor="middle" font-size="10" fill="#475569">bge-reranker-v2-m3</text>
  <text x="540" y="556" text-anchor="middle" font-size="10" fill="#475569">or ColBERT-late</text>
  <text x="540" y="572" text-anchor="middle" font-size="10" fill="#475569">top-50 → top-5</text>

  <rect x="650" y="500" width="240" height="80" rx="6" fill="white" stroke="#15803d"/>
  <text x="770" y="522" text-anchor="middle" font-size="12" font-weight="700">Context Builder + Generation</text>
  <text x="770" y="540" text-anchor="middle" font-size="10" fill="#475569">citation map · token-budget</text>
  <text x="770" y="556" text-anchor="middle" font-size="10" fill="#475569">structured prompts</text>
  <text x="770" y="572" text-anchor="middle" font-size="10" fill="#475569">→ Model Gateway</text>

  <rect x="50" y="600" width="280" height="85" rx="6" fill="white" stroke="#15803d"/>
  <text x="190" y="622" text-anchor="middle" font-size="12" font-weight="700">Vector DB</text>
  <text x="190" y="640" text-anchor="middle" font-size="10" fill="#475569">Qdrant (recommended)</text>
  <text x="190" y="656" text-anchor="middle" font-size="10" fill="#475569">or pgvector / Weaviate</text>
  <text x="190" y="676" text-anchor="middle" font-size="10" fill="#475569">int8 quant · namespace-per-tenant</text>

  <rect x="350" y="600" width="260" height="85" rx="6" fill="white" stroke="#15803d"/>
  <text x="480" y="622" text-anchor="middle" font-size="12" font-weight="700">Embedding Service</text>
  <text x="480" y="640" text-anchor="middle" font-size="10" fill="#475569">BGE-M3 (multilingual, 8K)</text>
  <text x="480" y="656" text-anchor="middle" font-size="10" fill="#475569">or Nomic-Embed-Text-v2 (MoE)</text>
  <text x="480" y="676" text-anchor="middle" font-size="10" fill="#475569">served via TEI / Ollama</text>

  <rect x="630" y="600" width="260" height="85" rx="6" fill="white" stroke="#15803d"/>
  <text x="760" y="622" text-anchor="middle" font-size="12" font-weight="700">BM25 / Keyword Index</text>
  <text x="760" y="640" text-anchor="middle" font-size="10" fill="#475569">OpenSearch or Tantivy</text>
  <text x="760" y="656" text-anchor="middle" font-size="10" fill="#475569">+ acronym/synonym dict</text>
  <text x="760" y="676" text-anchor="middle" font-size="10" fill="#475569">"saves recall on IDs &amp; codes"</text>

  <!-- Layer 4b: INGESTION (right side) -->
  <rect x="940" y="460" width="440" height="240" rx="10" fill="url(#bgIngest)" stroke="#4338ca" stroke-width="1.5"/>
  <text x="960" y="485" fill="#312e81" font-size="14" font-weight="700">⑤ DOCUMENT INGESTION &amp; OCR</text>

  <rect x="960" y="500" width="200" height="55" rx="6" fill="white" stroke="#4338ca"/>
  <text x="1060" y="520" text-anchor="middle" font-size="12" font-weight="700">Type Detector</text>
  <text x="1060" y="540" text-anchor="middle" font-size="10" fill="#475569">PDF · DOCX · image · scan</text>

  <rect x="1170" y="500" width="200" height="55" rx="6" fill="white" stroke="#4338ca"/>
  <text x="1270" y="520" text-anchor="middle" font-size="12" font-weight="700">Native Parser</text>
  <text x="1270" y="540" text-anchor="middle" font-size="10" fill="#475569">Docling / MinerU / pypdf</text>

  <rect x="960" y="565" width="200" height="55" rx="6" fill="white" stroke="#4338ca"/>
  <text x="1060" y="585" text-anchor="middle" font-size="12" font-weight="700">OCR Fallback</text>
  <text x="1060" y="605" text-anchor="middle" font-size="10" fill="#475569">PaddleOCR-VL · olmOCR</text>

  <rect x="1170" y="565" width="200" height="55" rx="6" fill="white" stroke="#4338ca"/>
  <text x="1270" y="585" text-anchor="middle" font-size="12" font-weight="700">VLM Deep-Parse</text>
  <text x="1270" y="605" text-anchor="middle" font-size="10" fill="#475569">Qwen2.5-VL · tables/figures</text>

  <rect x="960" y="630" width="200" height="55" rx="6" fill="white" stroke="#4338ca"/>
  <text x="1060" y="650" text-anchor="middle" font-size="12" font-weight="700">Chunker</text>
  <text x="1060" y="670" text-anchor="middle" font-size="10" fill="#475569">semantic + structural</text>

  <rect x="1170" y="630" width="200" height="55" rx="6" fill="white" stroke="#4338ca"/>
  <text x="1270" y="650" text-anchor="middle" font-size="12" font-weight="700">Metadata Enricher</text>
  <text x="1270" y="670" text-anchor="middle" font-size="10" fill="#475569">tenant · ACL · topic · date</text>

  <!-- Layer 5: MODEL SERVING -->
  <rect x="20" y="720" width="1360" height="160" rx="10" fill="url(#bgModel)" stroke="#b91c1c" stroke-width="1.5"/>
  <text x="40" y="745" fill="#7f1d1d" font-size="14" font-weight="700">⑥ MODEL SERVING LAYER (Single A100/4090/RTX 6000 class — 24GB VRAM)</text>

  <rect x="50" y="760" width="290" height="105" rx="8" fill="white" stroke="#b91c1c"/>
  <text x="195" y="782" text-anchor="middle" font-size="13" font-weight="700">Primary Reasoning Model</text>
  <text x="195" y="803" text-anchor="middle" font-size="11" fill="#475569">Qwen2.5-32B-Instruct (Q4_K_M)</text>
  <text x="195" y="820" text-anchor="middle" font-size="11" fill="#475569">or Mistral-Small-3.1-24B</text>
  <text x="195" y="838" text-anchor="middle" font-size="10" fill="#16a34a" font-weight="600">vLLM · PagedAttention · 8–32K ctx</text>
  <text x="195" y="854" text-anchor="middle" font-size="10" fill="#475569">OpenAI-compatible API</text>

  <rect x="360" y="760" width="240" height="105" rx="8" fill="white" stroke="#b91c1c"/>
  <text x="480" y="782" text-anchor="middle" font-size="13" font-weight="700">Vision-Language Model</text>
  <text x="480" y="803" text-anchor="middle" font-size="11" fill="#475569">Qwen2.5-VL-7B</text>
  <text x="480" y="820" text-anchor="middle" font-size="11" fill="#475569">or Gemma-3-12B-VL</text>
  <text x="480" y="838" text-anchor="middle" font-size="10" fill="#475569">images · charts · tables</text>
  <text x="480" y="854" text-anchor="middle" font-size="10" fill="#475569">~7-9 GB VRAM</text>

  <rect x="620" y="760" width="220" height="105" rx="8" fill="white" stroke="#b91c1c"/>
  <text x="730" y="782" text-anchor="middle" font-size="13" font-weight="700">Small Router LLM</text>
  <text x="730" y="803" text-anchor="middle" font-size="11" fill="#475569">Qwen2.5-3B / Phi-4-mini</text>
  <text x="730" y="820" text-anchor="middle" font-size="11" fill="#475569">via Ollama</text>
  <text x="730" y="838" text-anchor="middle" font-size="10" fill="#475569">intent · safety · summaries</text>
  <text x="730" y="854" text-anchor="middle" font-size="10" fill="#475569">CPU-fallback ok</text>

  <rect x="860" y="760" width="240" height="105" rx="8" fill="white" stroke="#b91c1c"/>
  <text x="980" y="782" text-anchor="middle" font-size="13" font-weight="700">Domain-Tuned Adapters</text>
  <text x="980" y="803" text-anchor="middle" font-size="11" fill="#475569">QLoRA / Unsloth</text>
  <text x="980" y="820" text-anchor="middle" font-size="11" fill="#475569">HR · Medical · Univ.</text>
  <text x="980" y="838" text-anchor="middle" font-size="10" fill="#475569">hot-swap per request</text>
  <text x="980" y="854" text-anchor="middle" font-size="10" fill="#475569">stored in adapter registry</text>

  <rect x="1120" y="760" width="240" height="105" rx="8" fill="white" stroke="#b91c1c"/>
  <text x="1240" y="782" text-anchor="middle" font-size="13" font-weight="700">Model Gateway</text>
  <text x="1240" y="803" text-anchor="middle" font-size="11" fill="#475569">LiteLLM / single endpoint</text>
  <text x="1240" y="820" text-anchor="middle" font-size="11" fill="#475569">load-balance · failover</text>
  <text x="1240" y="838" text-anchor="middle" font-size="10" fill="#475569">cost &amp; token metering</text>
  <text x="1240" y="854" text-anchor="middle" font-size="10" fill="#475569">streaming · function-call</text>

  <!-- Layer 6: INFRA & OPS -->
  <rect x="20" y="900" width="1360" height="80" rx="10" fill="url(#bgInfra)" stroke="#6b7280" stroke-width="1.5"/>
  <text x="40" y="925" fill="#111827" font-size="14" font-weight="700">⑦ INFRASTRUCTURE, OBSERVABILITY &amp; LIFECYCLE</text>

  <rect x="50" y="935" width="200" height="35" rx="6" fill="white" stroke="#6b7280"/>
  <text x="150" y="957" text-anchor="middle" font-size="11" font-weight="600">Docker / K8s + Helm</text>

  <rect x="270" y="935" width="200" height="35" rx="6" fill="white" stroke="#6b7280"/>
  <text x="370" y="957" text-anchor="middle" font-size="11" font-weight="600">GPU node pool</text>

  <rect x="490" y="935" width="200" height="35" rx="6" fill="white" stroke="#6b7280"/>
  <text x="590" y="957" text-anchor="middle" font-size="11" font-weight="600">Prometheus + Grafana</text>

  <rect x="710" y="935" width="200" height="35" rx="6" fill="white" stroke="#6b7280"/>
  <text x="810" y="957" text-anchor="middle" font-size="11" font-weight="600">Langfuse (LLM tracing)</text>

  <rect x="930" y="935" width="200" height="35" rx="6" fill="white" stroke="#6b7280"/>
  <text x="1030" y="957" text-anchor="middle" font-size="11" font-weight="600">RAGAS eval pipeline</text>

  <rect x="1150" y="935" width="210" height="35" rx="6" fill="white" stroke="#6b7280"/>
  <text x="1255" y="957" text-anchor="middle" font-size="11" font-weight="600">MinIO/S3 + Postgres</text>

  <!-- Connectors / arrows -->
  <line x1="700" y1="170" x2="700" y2="190" stroke="#475569" stroke-width="2" marker-end="url(#arrow)"/>
  <line x1="700" y1="260" x2="700" y2="280" stroke="#475569" stroke-width="2" marker-end="url(#arrow)"/>
  <line x1="310" y1="425" x2="470" y2="460" stroke="#16a34a" stroke-width="2" marker-end="url(#arrowGreen)"/>
  <line x1="640" y1="425" x2="540" y2="460" stroke="#16a34a" stroke-width="2" marker-end="url(#arrowGreen)"/>
  <line x1="870" y1="425" x2="700" y2="460" stroke="#16a34a" stroke-width="2" marker-end="url(#arrowGreen)"/>
  <line x1="1090" y1="425" x2="850" y2="460" stroke="#16a34a" stroke-width="2" marker-end="url(#arrowGreen)"/>
  <line x1="890" y1="540" x2="940" y2="540" stroke="#475569" stroke-width="2" marker-end="url(#arrow)"/>
  <line x1="940" y1="600" x2="890" y2="600" stroke="#475569" stroke-width="2" marker-end="url(#arrow)"/>
  <line x1="770" y1="690" x2="770" y2="720" stroke="#475569" stroke-width="2" marker-end="url(#arrow)"/>
  <line x1="700" y1="880" x2="700" y2="900" stroke="#475569" stroke-width="2" marker-end="url(#arrow)"/>
</svg>
